<svg xmlns="http://www.w3.org/2000/svg" viewBox="0 0 477.89 477.89" width="512" height="512"><path d="M21.624 202.194h-.006l-4.191.04 4.4-3.068a1.084 1.084 0 00-1.24-1.778l-5.936 4.139.041-6.999a1.083 1.083 0 00-1.077-1.09h-.006c-.595 0-1.079.48-1.083 1.077l-.036 6.177-3.715-3.926a1.085 1.085 0 00-1.574 1.49l3.822 4.039-6.941.066a1.083 1.083 0 00.01 2.167h.011l6.331-.06-4.903 3.418a1.084 1.084 0 001.24 1.777l5.689-3.966-.042 7.051a1.083 1.083 0 001.077 1.09h.006c.595 0 1.079-.48 1.083-1.077l.039-6.66 3.96 4.184a1.085 1.085 0 001.532.043c.434-.41.453-1.098.042-1.532l-4.146-4.381 5.627-.054a1.083 1.083 0 00-.014-2.167zM448.46 256.361h-.006l-4.191.04 4.4-3.068a1.084 1.084 0 00-1.24-1.778l-5.936 4.139.041-6.999a1.083 1.083 0 00-1.077-1.09h-.006c-.595 0-1.079.48-1.083 1.077l-.036 6.177-3.715-3.926a1.085 1.085 0 00-1.574 1.49l3.822 4.039-6.941.066a1.083 1.083 0 00.01 2.167h.011l6.331-.06-4.903 3.418a1.083 1.083 0 101.24 1.777l5.689-3.966-.042 7.051a1.083 1.083 0 001.077 1.09h.006c.595 0 1.079-.48 1.083-1.077l.039-6.66 3.96 4.184a1.085 1.085 0 001.532.043c.434-.41.453-1.098.042-1.532l-4.146-4.381 5.627-.054a1.083 1.083 0 00-.014-2.167zM266.593 37.532h-.006l-4.191.04 4.4-3.068a1.084 1.084 0 00-1.24-1.778l-5.936 4.139.041-6.999a1.083 1.083 0 00-1.077-1.09h-.006c-.595 0-1.079.48-1.083 1.077l-.036 6.177-3.715-3.926a1.085 1.085 0 00-1.574 1.49l3.822 4.039-6.941.066a1.083 1.083 0 00.01 2.167h.011l6.331-.06-4.903 3.418a1.084 1.084 0 001.24 1.777l5.689-3.966-.042 7.051a1.083 1.083 0 001.077 1.09h.006c.595 0 1.079-.48 1.083-1.077l.039-6.66 3.96 4.184a1.085 1.085 0 001.532.043c.434-.41.453-1.098.042-1.532l-4.146-4.381 5.627-.054a1.083 1.083 0 00-.014-2.167zM127.692 448.145c-.195 2.34 4.425 6.153 7.667 8.529-.002.068.018.131.028.198-2.551 1.153-6.896 3.31-8.641 5.346a1.577 1.577 0 00-.335 1.484c.255.887 1.267 2.026 6.835 3.766 7.769 2.428 22.04 5.112 25.834 3.846 4.36-1.456 8.691-7.998 10.222-10.508 9.707-2.1 19.985-7.479 28.536-19.054-.23 2.64-.291 6.012.388 9.058.188.846.593 1.371 1.201 1.561 1.226.382 2.216-.835 3.02-2.076 1.993-3.067 4.549-9.294 6.132-13.694 3.591-9.982 2.76-10.926 2.361-11.38a1.658 1.658 0 00-.77-.481c-3.353-1.048-21.781 5.531-24.394 7.72-.765.64-.759 1.336-.687 1.694.189.949 1.149 1.628 3.213 2.273 2.764.864 6.977 1.497 9.345 1.81-8.228 12.235-18.361 17.964-27.99 20.247-.405-.421-4.361-4.494-8.317-7.108-.663-.438-1.714-.878-3.213-1.346-7.469-2.334-25.919-5.071-29.237-3.527-.712.333-1.138.916-1.198 1.642zm71.965-11.842c-.071-.008-6.981-.779-10.707-1.943-.672-.21-1.102-.39-1.374-.527 3.617-2.339 18.564-7.225 21.616-7.074.022 3.854-6.53 19.516-8.96 22.931-.988-5.579.352-12.017.366-12.084a1.08 1.08 0 00-.132-.819c-.274-.431-.753-.48-.809-.484zM137.523 458.3c.624.229 1.421.506 2.383.806 5.282 1.65 15.327 3.947 26.473 2.234-2.02 3.004-5.189 6.984-7.987 7.918-2.745.916-15.796-1.139-24.5-3.859-3.363-1.051-4.669-1.779-5.157-2.134 1.912-1.837 6.488-3.991 8.788-4.965zm-7.672-9.98c2.12-.86 19.304 1.177 27.631 3.779 1.6.5 2.332.866 2.664 1.086 2.711 1.792 5.512 4.4 6.974 5.828-12.887 2.306-24.419-1.139-28.581-2.644-.063-.076-.105-.167-.189-.225-4.53-3.116-8.501-6.772-8.499-7.824zM60.359 112.469l-.032.002c-4.126.193-7.638-3.007-7.832-7.135-.192-4.109 2.993-7.621 7.101-7.83a7.457 7.457 0 015.427 1.944 7.442 7.442 0 012.438 5.187c.191 4.108-2.996 7.623-7.102 7.832zm-.11-2.164a5.34 5.34 0 005.049-5.567 5.28 5.28 0 00-1.734-3.687 5.285 5.285 0 00-3.833-1.383c-2.944.15-5.206 2.647-5.07 5.566a5.33 5.33 0 005.566 5.072M61.829 405.033l-.032.002c-4.126.193-7.638-3.007-7.832-7.135-.192-4.109 2.993-7.621 7.101-7.83a7.457 7.457 0 015.427 1.944 7.442 7.442 0 012.438 5.187c.191 4.109-2.996 7.623-7.102 7.832zm-.11-2.164a5.34 5.34 0 005.049-5.567 5.28 5.28 0 00-1.734-3.687 5.285 5.285 0 00-3.833-1.383c-2.944.15-5.206 2.647-5.07 5.566a5.33 5.33 0 005.566 5.072M347.831 331.366l-.032.002c-4.126.193-7.638-3.007-7.832-7.135-.192-4.109 2.993-7.621 7.101-7.83a7.457 7.457 0 015.427 1.944 7.442 7.442 0 012.438 5.187c.191 4.108-2.996 7.623-7.102 7.832zm-.111-2.164a5.34 5.34 0 005.049-5.567 5.28 5.28 0 00-1.734-3.687 5.285 5.285 0 00-3.833-1.383c-2.944.15-5.206 2.647-5.07 5.566a5.33 5.33 0 005.566 5.072M403.107 99.347l-.032.002c-4.126.193-7.638-3.007-7.832-7.135-.192-4.109 2.993-7.621 7.101-7.83a7.457 7.457 0 015.427 1.944 7.442 7.442 0 012.438 5.187c.191 4.109-2.996 7.623-7.102 7.832zm-.11-2.163a5.34 5.34 0 005.049-5.567 5.28 5.28 0 00-1.734-3.687 5.285 5.285 0 00-3.833-1.383c-2.944.15-5.206 2.647-5.07 5.566a5.33 5.33 0 005.566 5.072" fill="gray"/><path d="M308.44 19.88s-2.138-16.229 13.484-10.978 10.531 20.11 4.576 15.025c-5.955-5.085 5.219-22.33 17.173-14.651 11.954 7.679 9.28 22.58.801 23.679-8.479 1.1 5.133-17.35 15.814-5.956s-12.64 32.167-22.177 24.53c-9.537-7.638-2.074-19.965.214-12.452s-3.882 14.88-20.797 14.589c-16.915-.291-9.216-26.315-3.303-18.74 5.913 7.575-3.903 16.125-15.836 7.201s1.679-27.373 10.051-22.247z" fill="#fff"/><path d="M318.486 54.759l-.977-.008c-5.545-.095-9.447-2.937-10.823-7.831-2.917-.37-5.993-1.716-8.946-3.925-4.676-3.498-6.26-8.806-4.345-14.564 1.963-5.897 7.188-10.518 11.897-10.518.678 0 1.334.091 1.965.271-.02-2.258.328-6.102 2.618-8.713 2.558-2.918 6.773-3.485 12.394-1.595 2.168.728 4.067 1.674 5.66 2.818 2.688-2.835 6.117-4.441 9.544-4.441 2.32 0 4.603.711 6.785 2.112 5.167 3.32 8.303 8.423 8.56 13.827 3.032.087 5.809 1.454 8.26 4.069 3.325 3.546 3.939 8.313 1.727 13.419-3.364 7.767-12.553 14.581-19.662 14.581-2.227 0-4.147-.633-5.709-1.883a15.478 15.478 0 01-2.015-1.93c-3.736 2.824-9.554 4.311-16.933 4.311zm-9.502-7.754c.965 2.734 3.258 5.489 8.563 5.58l.938.008c8.508 0 13.155-1.995 15.648-3.891-2.381-3.853-2.198-8.066-.873-10.675.765-1.507 1.877-2.372 3.049-2.372.786 0 2.228.404 3.052 3.108 1.145 3.762.295 7.44-2.329 10.239a13.12 13.12 0 001.754 1.682c1.168.935 2.632 1.409 4.353 1.409 6.241 0 14.665-6.327 17.675-13.275 1.307-3.017 2.139-7.389-1.319-11.077-2.037-2.173-4.301-3.309-6.733-3.383-.51 5.188-3.758 9.103-8.152 9.672a6.523 6.523 0 01-.826.055h-.002c-2.17.002-2.997-1.325-3.047-2.567-.124-3.057 4.283-8.195 9.918-9.168-.205-4.725-2.982-9.217-7.569-12.162-4.508-2.899-9.681-2.04-13.483 1.889 3.691 3.512 4.377 7.833 3.347 10.717-1.15 3.214-4.493 4.234-7.156 1.955-3.287-2.806-2.224-8.286.745-12.384-1.392-.98-3.056-1.796-4.962-2.438-4.718-1.583-8.099-1.276-10.071.965-2.704 3.077-2.002 8.792-1.994 8.849a1.085 1.085 0 01-1.64 1.064 4.867 4.867 0 00-2.582-.726c-3.769 0-8.183 4.054-9.84 9.037-.759 2.277-1.925 8.021 3.585 12.143 2.409 1.801 4.875 2.96 7.211 3.398-.48-4.202.806-8.299 2.501-10.404.946-1.172 2.048-1.792 3.191-1.792.791 0 1.977.311 3.138 1.799 2.101 2.691 2.578 5.726 1.31 8.326-1.249 2.567-4.048 4.222-7.4 4.419zm27.326-9.183c-.199 0-.679.324-1.118 1.187-.969 1.909-1.129 5.148.564 8.176 1.864-2.188 2.411-4.909 1.533-7.791-.349-1.145-.786-1.572-.979-1.572zm-24.37-3.193c-.457 0-.991.349-1.503.986-1.444 1.792-2.503 5.624-1.975 9.24 2.744-.042 5.026-1.267 5.978-3.218.892-1.826.501-4.029-1.07-6.043-.344-.44-.87-.965-1.43-.965zm38.618-10.055c-4.543 1.009-7.724 5.18-7.656 6.856.008.207.02.489.882.489h.001c.168 0 .351-.013.548-.038 3.252-.422 5.69-3.35 6.225-7.307zm-22.345-10.829c-2.561 3.567-3.052 7.615-1.01 9.359 1.54 1.314 3.039.836 3.708-1.037.78-2.184.201-5.502-2.698-8.322z" fill="gray"/><path d="M64.597 338.366s-2.138-16.229 13.484-10.978c15.621 5.251 10.531 20.11 4.576 15.025s5.219-22.33 17.173-14.651c11.954 7.679 9.28 22.58.801 23.679s5.133-17.35 15.814-5.956c10.681 11.394-12.64 32.167-22.177 24.53s-2.074-19.965.214-12.452-3.882 14.88-20.797 14.589c-16.915-.291-9.216-26.315-3.303-18.74 5.913 7.575-3.903 16.125-15.836 7.201s1.679-27.374 10.051-22.247z" fill="#fff"/><path d="M74.642 373.245l-.976-.008c-5.545-.095-9.447-2.937-10.822-7.831-2.918-.37-5.994-1.716-8.947-3.925-4.676-3.498-6.259-8.806-4.344-14.564 1.961-5.897 7.188-10.518 11.897-10.518.678 0 1.334.091 1.965.271-.02-2.258.328-6.102 2.618-8.715 2.559-2.914 6.772-3.483 12.393-1.593 2.168.728 4.068 1.674 5.661 2.818 2.688-2.835 6.117-4.441 9.544-4.441 2.32 0 4.603.711 6.785 2.112 5.167 3.32 8.303 8.423 8.56 13.827 3.032.087 5.809 1.454 8.26 4.069 3.325 3.546 3.939 8.313 1.726 13.419-3.364 7.767-12.552 14.581-19.661 14.581-2.227 0-4.147-.633-5.709-1.883a15.478 15.478 0 01-2.015-1.93c-3.736 2.823-9.556 4.311-16.935 4.311zm-9.502-7.755c.966 2.734 3.258 5.489 8.563 5.58l.938.008c8.508 0 13.155-1.995 15.648-3.891-2.38-3.855-2.197-8.066-.873-10.675.766-1.507 1.878-2.372 3.05-2.372.786 0 2.228.404 3.051 3.108 1.146 3.762.296 7.44-2.327 10.239a13.12 13.12 0 001.754 1.682c1.168.935 2.632 1.409 4.353 1.409 6.241 0 14.664-6.327 17.674-13.275 1.308-3.017 2.139-7.387-1.318-11.077-2.037-2.173-4.301-3.309-6.733-3.383-.511 5.188-3.758 9.103-8.152 9.674a6.52 6.52 0 01-.825.055h-.002c-2.171 0-2.998-1.327-3.049-2.569-.123-3.055 4.283-8.195 9.919-9.168-.206-4.723-2.982-9.217-7.57-12.162-4.504-2.897-9.679-2.042-13.481 1.889 3.691 3.512 4.377 7.833 3.347 10.719-1.148 3.218-4.493 4.23-7.156 1.955-3.287-2.806-2.225-8.286.745-12.386-1.393-.978-3.057-1.796-4.963-2.438-4.726-1.587-8.104-1.276-10.075.971-2.71 3.089-1.996 8.783-1.989 8.84.055.415-.133.823-.483 1.049a1.09 1.09 0 01-1.156.017 4.867 4.867 0 00-2.582-.726c-3.769 0-8.183 4.054-9.841 9.035-.757 2.279-1.925 8.023 3.585 12.145 2.409 1.801 4.875 2.96 7.212 3.398-.48-4.202.805-8.299 2.501-10.404.946-1.172 2.048-1.792 3.191-1.792.791 0 1.977.311 3.138 1.799 2.101 2.691 2.578 5.726 1.309 8.326-1.251 2.568-4.051 4.223-7.403 4.42zm27.327-9.183c-.2 0-.679.324-1.118 1.187-.969 1.909-1.129 5.148.563 8.176 1.864-2.188 2.411-4.911 1.533-7.791-.348-1.145-.785-1.572-.978-1.572zm-24.37-3.193c-.457 0-.991.349-1.503.986-1.444 1.792-2.503 5.624-1.976 9.24 2.745-.042 5.027-1.267 5.98-3.218.892-1.828.501-4.031-1.07-6.043-.344-.44-.871-.965-1.431-.965zm38.618-10.055c-4.542 1.009-7.723 5.182-7.655 6.858.008.207.019.489.883.489h.001c.168 0 .35-.013.547-.038 3.251-.422 5.689-3.352 6.224-7.309zM84.371 332.23c-2.561 3.57-3.052 7.617-1.01 9.361 1.541 1.314 3.042.832 3.708-1.039.779-2.182.201-5.501-2.698-8.322zM31.721 365.473c-.227 0-.455-.053-.675-.157-1.406-.662-5.342-4.162-7.911-6.519-6.931 3.703-9.19 4.141-10.29 4.141-1.072 0-1.574-.491-1.807-.901a1.087 1.087 0 01-.042-.982c.02-.044 2.002-4.405 4.511-9.543-7.993-7.945-7.747-8.696-7.509-9.422.128-.391.573-.758.98-.817.102-.017.263-.027.48-.027 1.356 0 5.732.406 10.786.999 4.292-7.899 5.579-8.567 6.609-8.567.426 0 .818.18 1.101.508.966 1.113 2.114 5.618 2.957 9.479 10.366 1.574 10.524 2.304 10.706 3.148.089.406-.021.973-.596 1.346-.037.023-3.631 2.347-8.324 5.167 1.511 10.017.521 11.176.142 11.618a1.457 1.457 0 01-1.118.529zm-6.574-7.77c3.133 2.852 5.123 4.492 6.152 5.228.117-1.126.06-3.673-.616-8.404a231.98 231.98 0 01-5.536 3.176zm-8.012-4.587a425.888 425.888 0 00-3.582 7.562c1.122-.245 3.379-1.062 7.898-3.44a255.015 255.015 0 01-4.316-4.122zm1.004-2.05a264.41 264.41 0 005.327 5.089 223.082 223.082 0 006.865-3.938 152.067 152.067 0 00-1.226-6.631c-2.482-.36-5.124-.707-7.651-1.014a242.074 242.074 0 00-3.315 6.494zm13.249-5.135c.342 1.691.66 3.411.942 5.089a352.502 352.502 0 006.069-3.758c-1.15-.301-3.238-.741-7.011-1.331zm-20.46-2.446c.911 1.111 2.629 3.009 5.589 5.973a252.466 252.466 0 012.63-5.159c-3.36-.385-6.384-.685-8.219-.814zm11.633-.961c2.01.25 4.073.521 6.055.802-.877-3.893-1.595-6.195-2.021-7.192-.476.552-1.669 2.109-4.034 6.39zM441.046 131.429c-.476 0-.901-.273-1.138-.732-.085-.163-2.01-3.887-4.345-8.781a93.17 93.17 0 01-4.912.146c-5.617 0-6.489-.707-6.902-1.432-.267-.47-.253-1.02.038-1.509.795-1.335 4.655-4.915 7.248-7.249-3.874-9.299-3.666-11.637-2.064-12.351.316-.14.68-.121.981.051.043.025 4.195 2.416 9.068 5.406 8.055-6.676 9.082-6.676 9.583-6.676.577 0 1.207.582 1.237 1.16.053 1.043-1.198 7.171-2.05 11.123 7.251 4.894 7.886 6.259 7.9 7.228.006.491-.218.933-.618 1.217-1.202.855-5.793 1.566-9.718 2.035-2.614 10.364-3.364 10.364-4.308 10.364zm-3.151-9.657a355.97 355.97 0 003.156 6.401c.409-1.115 1.049-3.151 1.998-6.851-1.714.179-3.457.329-5.154.45zm-11.758-2.171c.663.138 1.975.294 4.513.294 1.172 0 2.483-.032 3.911-.097a227.365 227.365 0 01-2.63-5.817c-3.138 2.842-4.963 4.666-5.794 5.62zm7.496-7.145c.926 2.16 2.021 4.579 3.262 7.211 2.193-.14 4.488-.341 6.717-.584a329.627 329.627 0 001.745-7.518 243.656 243.656 0 00-6.148-3.923 258.27 258.27 0 00-5.576 4.814zm13.655.408a330.251 330.251 0 01-1.381 5.95c3.897-.493 6.244-.978 7.303-1.306-.558-.632-2.032-1.976-5.922-4.644zm-17.217-10.715c.131 1.066.697 3.358 2.678 8.197a263.16 263.16 0 014.516-3.9 427.755 427.755 0 00-7.194-4.297zm10.893 4.033a271.957 271.957 0 014.885 3.112c.806-3.764 1.333-6.515 1.605-8.127-1.155.79-3.216 2.322-6.49 5.015z" fill="gray"/><path d="M433.562 180.291c-15.348-6.439-27.432 10.599-33.026 20.719l8.106 4.134s12.656-22.752 22.93-14.732c10.275 8.02 1.234 27.268 1.234 27.268l9.699 5.585c3.932-11.186 9.746-35.134-8.943-42.974z" fill="#e1af01"/><path d="M442.926 160.66c42.441 20.719 26.733 60.783 19.864 74.287l6.631 3.818s28.033-59.598-17.914-85.939c-45.947-26.341-78.156 34.321-78.156 34.321l7.532 3.841c7.617-14.343 29.056-46.432 62.043-30.328z" fill="#e17b8d"/><path d="M442.926 160.66c-32.988-16.104-54.427 15.984-62.042 30.328l9.921 5.06c8.029-14.973 27.465-41.944 55.753-21.83 18.539 13.182 11.293 41.874 6.611 55.189l9.622 5.541c6.868-13.505 22.576-53.569-19.865-74.288z" fill="#b1739a"/><path d="M446.558 174.218c-28.288-20.114-47.724 6.857-55.753 21.83l9.73 4.962c5.594-10.12 17.678-27.159 33.026-20.719 18.689 7.841 12.875 31.788 8.943 42.975l10.664 6.14c4.684-13.314 11.929-42.007-6.61-55.188z" fill="#dd7e0e"/><path d="M462.974 235.059a1.085 1.085 0 01-.936-1.627c.063-.11 6.444-11.238 7.967-25.298 2.025-18.696-5.058-33.474-21.051-43.926-9.688-6.335-19.572-8.288-29.39-5.827-22.523 5.662-37.58 32.851-37.73 33.124a1.085 1.085 0 01-1.47.432 1.081 1.081 0 01-.433-1.468c.627-1.153 15.648-28.287 39.095-34.187 10.427-2.622 20.893-.567 31.111 6.111 39.903 26.081 14.038 71.67 13.771 72.127a1.072 1.072 0 01-.934.539z" fill="gray"/><path d="M453.169 230.489a1.083 1.083 0 01-1.015-1.464c.159-.423 15.614-42.637-9.684-56.217-7.444-3.997-14.948-4.873-22.306-2.609-17.237 5.302-28.289 26.142-28.397 26.351a1.085 1.085 0 01-1.921-1.003c.463-.889 11.567-21.84 29.672-27.416 7.933-2.444 16.001-1.515 23.976 2.768 26.965 14.473 10.856 58.445 10.69 58.888a1.085 1.085 0 01-1.015.702z" fill="gray"/><path d="M442.505 224.349a1.085 1.085 0 01-1.007-1.483c.121-.305 11.895-30.687-6.06-40.585-3.921-2.16-8.04-2.639-12.233-1.407-12.317 3.599-21.624 20.484-21.718 20.655a1.087 1.087 0 01-1.468.434 1.085 1.085 0 01-.434-1.471c.395-.726 9.84-17.85 23.011-21.699 4.769-1.399 9.445-.859 13.887 1.591 8.176 4.507 11.965 13.474 10.96 25.932-.746 9.227-3.801 17.02-3.931 17.348a1.082 1.082 0 01-1.007.685zM419.399 304.241a1.086 1.086 0 01-.894-1.695c.478-.779 3.197-6.75 4.37-9.822-2.25 1.166-6.329 3.546-10.007 5.804a1.084 1.084 0 11-1.134-1.845c12.578-7.723 12.946-7.245 13.602-6.371 1.116 1.496-4.969 13.351-5.041 13.457-.21.307-.55.472-.896.472z" fill="gray"/><path d="M404.106 310.018s-4.648-16.266 4.68-16.314c12.923-.066 28.715 27.714 9.279 41.842-19.435 14.128-33.588-.96-33.588-.96l10.717-6.807s-11.023-4.59-12.421-11.049c-1.399-6.459 7.054-3.324 7.054-3.324s-12.668-11.553-6.482-14.215 20.761 10.827 20.761 10.827z" fill="#b1739a"/><path d="M412.302 304.838c-2.122 0-4.721-1.961-5.569-2.651a1.083 1.083 0 111.366-1.68c1.349 1.094 3.225 2.135 4.119 2.175-.291-.853-1.614-2.742-3.066-4.327a1.084 1.084 0 011.598-1.464c1.527 1.667 4.031 4.729 3.65 6.511-.12.561-.477.997-1.008 1.225a2.754 2.754 0 01-1.09.211zM398.502 326.481c-.125 0-.251-.021-.375-.068-.806-.296-7.902-3.013-8.858-6.97-.316-1.31.248-2.038.613-2.355 1.072-.935 3.184-.705 5.06-.231-2.082-3.663-2.501-6.003-1.243-6.966.532-.41 2.165-1.661 12.652 6.473a1.084 1.084 0 01-1.329 1.714c-3.801-2.95-8.526-6.051-10.002-6.341.102.815 1.521 3.777 3.301 6.47.26.394.236.912-.061 1.278a1.095 1.095 0 01-1.239.328c-2.386-.937-5.113-1.466-5.692-1.109.012.019.014.097.046.231.518 2.139 4.876 4.475 7.502 5.446a1.083 1.083 0 01-.375 2.1zM406.213 334.831a1.083 1.083 0 01-.079-2.165c.088-.006 8.768-.726 13.453-6.843 2.82-3.684 3.667-8.614 2.514-14.655a1.084 1.084 0 012.128-.406c1.275 6.68.288 12.196-2.934 16.392-5.288 6.889-14.608 7.645-15.002 7.674-.027.003-.054.003-.08.003z" fill="gray"/><g><path d="M11.565 147.055c-.161 0-.324-.036-.478-.114-.114-.057-11.178-7.488-10.93-9.327.154-1.117.224-1.686 14.985-1.018.598.025 1.06.531 1.034 1.13-.028.599-.541 1.128-1.131 1.033-4.312-.193-9.033-.298-11.564-.229 2.516 2.12 7.789 6.028 8.599 6.485.512.29.714.944.437 1.462a1.085 1.085 0 01-.952.578z" fill="gray"/><path d="M28.278 144.562s-3.817-16.481-12-12.002c-11.336 6.205-11.686 38.158 12.161 41.097s28.915-17.118 28.915-17.118l-12.673-.761s7.417-9.357 5.51-15.684c-1.907-6.328-7.782.511-7.782.511s5.482-16.245-1.219-15.575-12.912 19.532-12.912 19.532z" fill="#b1739a"/><path d="M17.358 144.357c-.504 0-.956-.207-1.293-.592-1.195-1.375-.489-5.266.038-7.465.14-.58.725-.931 1.307-.8.582.14.941.724.801 1.306-.501 2.09-.744 4.384-.585 5.271.762-.47 1.899-2.289 2.549-3.9a1.09 1.09 0 011.409-.601c.555.224.824.855.601 1.409-.481 1.198-2.24 5.127-4.643 5.364a2.893 2.893 0 01-.184.008zM40.632 156.382a1.083 1.083 0 01-.821-1.79c1.828-2.122 4.509-6.278 3.924-8.4-.054-.197-.108-.256-.108-.256-.613-.013-2.747 1.752-4.405 3.76a1.085 1.085 0 01-1.916-.775c.238-3.049.078-6.149-.337-7.175-1.193 1.14-3.739 6.001-5.587 10.311a1.084 1.084 0 11-1.991-.855c5.232-12.196 7.263-11.891 7.929-11.792 1.569.231 2.336 2.48 2.289 6.695 1.411-1.329 3.162-2.55 4.539-2.251.472.102 1.318.463 1.676 1.763 1.081 3.923-3.81 9.739-4.371 10.391a1.086 1.086 0 01-.821.374zM28.804 169.321c-2.302 0-4.806-.372-7.258-1.439-4.851-2.11-8.387-6.456-10.51-12.915a1.083 1.083 0 012.059-.677c1.921 5.848 5.055 9.754 9.315 11.606 7.083 3.081 14.99-.504 15.067-.54a1.083 1.083 0 11.91 1.968c-.248.113-4.405 1.997-9.583 1.997z" fill="gray"/></g><g><path d="M396.37 61.204a1.078 1.078 0 01-1.003-.673c-.347-.848-8.454-20.875-3.972-30.291 1.083-2.272 2.805-3.779 5.117-4.477a5.926 5.926 0 011.719-.262c3.792 0 6.361 3.692 7.679 7.6 2.684-1.877 6.171-3.603 9.094-3.603 2.665 0 4.468 1.42 5.076 3.995 2.002 8.495-20.491 25.577-23.062 27.496a1.086 1.086 0 01-.648.215zm1.862-33.537a3.79 3.79 0 00-1.093.169c-1.728.523-2.966 1.612-3.787 3.337-3.46 7.266 1.795 22.623 3.51 27.215 7.277-5.599 22.456-18.683 21.109-24.398-.373-1.585-1.317-2.325-2.966-2.325-2.217 0-5.491 1.424-8.479 3.665.632 2.939.76 6.752-.809 8.77-1.011 1.299-2.586 1.663-4.353.952-1.621-.652-2.104-1.777-2.224-2.605-.434-2.996 3.159-6.439 4.943-7.941-1.035-3.504-3.168-6.839-5.851-6.839zm6.386 9.245c-2.471 2.272-3.479 4.24-3.336 5.224.039.271.176.618.888.906.838.339 1.402.286 1.834-.273.794-1.02 1.01-3.297.614-5.857z" fill="gray"/></g><g><path fill="#e8b500" d="M372.188 242.289l-2.191-14.749 11.832 7.873 11.82-5.417-.944 11.803 8.842 10.107-12.299 1.175-6.386 12.817-5.537-13.763-13.488-.283z"/></g><g><path fill="#e8b500" d="M98.464 287.789l-2.191-14.749 11.832 7.874 11.82-5.418-.944 11.804 8.842 10.106-12.299 1.176-6.386 12.816-5.537-13.763-13.488-.282z"/></g><g><path d="M26.2 260.799s-5.628 7.606-4.282 9.91c1.346 2.304 19.228 14.665 20.552 13.466 1.324-1.2 7.64-10.913 7.64-10.913L26.2 260.799z" fill="#fff"/><path d="M42.186 285.342h-.001c-3.027-.002-19.754-11.606-21.201-14.086-1.584-2.71 2.926-9.183 4.346-11.102a1.082 1.082 0 011.371-.315l23.911 12.463a1.08 1.08 0 01.407 1.551c-1.067 1.642-6.461 9.892-7.82 11.125-.184.167-.507.364-1.013.364zm-15.654-23.148c-2.442 3.476-4.158 7.147-3.677 7.971 1.263 2.162 16.278 12.304 19.111 12.975 1.107-1.265 4.32-6.016 6.586-9.469l-22.02-11.477z" fill="gray"/><path d="M35.334 231.374s-18.276-8.294-30.677 14.355c-8.457 15.446 9.493 4.845 16.952 9.493s13.725-23.848 13.725-23.848zM72.563 255.872s13.273 15.054-4.761 33.533c-12.299 12.602-7.408-7.662-14.034-13.437-6.626-5.775 18.795-20.096 18.795-20.096z" fill="#d75a41"/><path d="M17.557 258.065s30.356 22.291 36.322 23.654 32.717-45.978 17.692-61.021c-20.447-20.471-55.997 34.155-54.014 37.367z" fill="#fff"/><path d="M54.146 282.832c-.158-.072-.345-.019-.508-.057-6.115-1.399-35.475-22.924-36.722-23.838a1.087 1.087 0 01-.28-.305c-.292-.472-.898-1.454 2.25-7.099 6.642-11.908 25.679-36.497 42.136-36.497 4.264 0 8.071 1.648 11.316 4.896 9.544 9.555 2.55 29.921-.9 38.234-4.945 11.914-13.072 24.666-17.292 24.666zm-35.572-25.365c8.678 6.356 30.902 22.134 35.547 23.197l.025.002h.001c1.976 0 9.282-8.855 15.289-23.33 3.283-7.909 9.988-27.242 1.369-35.871-2.825-2.827-6.116-4.261-9.784-4.261-9.162 0-19.027 8.557-25.689 15.734-9.595 10.335-16.401 22.036-16.758 24.529z" fill="gray"/><path d="M75.789 247.191s-33.55-20.678-34.688-23.264c-1.138-2.586 22.093-17.276 31.406-10.385 12.112 8.965 4.178 31.261 3.282 33.649z" fill="#d75a41"/><circle cx="48.087" cy="250.839" r="12.616" fill="#fff"/><path d="M48.077 264.538a13.59 13.59 0 01-8.139-2.687c-6.072-4.494-7.355-13.089-2.863-19.162a13.77 13.77 0 0111.022-5.55c2.949 0 5.763.929 8.139 2.687a13.612 13.612 0 015.4 8.986c.541 3.62-.36 7.232-2.537 10.175a13.766 13.766 0 01-11.022 5.551zm.02-25.232a11.589 11.589 0 00-9.28 4.674c-3.782 5.11-2.701 12.346 2.41 16.127a11.436 11.436 0 006.85 2.264c3.646 0 7.115-1.748 9.28-4.674a11.456 11.456 0 002.136-8.563 11.446 11.446 0 00-4.546-7.564 11.436 11.436 0 00-6.85-2.264z" fill="gray"/><path d="M33.428 284.023s8.22 3.031 4.512 15.11-30.852 19.893-32.553 16.89-10.659-22.711-.912-32.936 15.297-8.299 28.953.936z" fill="#d75a41"/><g><path d="M28.965 284.875s4.228 1.559 2.321 7.773-15.87 10.233-16.745 8.688c-.875-1.545-5.483-11.682-.469-16.942s7.869-4.269 14.893.481z" fill="#f1bc00"/></g><g><path d="M51.965 245.425s6.394 2.552 3.07 8.812" fill="#fff"/><path d="M55.034 255.319a1.081 1.081 0 01-.956-1.591c.846-1.593 1.046-3.028.594-4.261-.75-2.044-3.085-3.026-3.109-3.034a1.085 1.085 0 01-.604-1.409 1.09 1.09 0 011.408-.605c.131.053 3.248 1.327 4.34 4.304.673 1.834.433 3.862-.715 6.022-.195.365-.57.574-.958.574z" fill="gray"/></g><g><path d="M72.151 235.726a1.083 1.083 0 01-1.005-1.487c2.86-7.122-1.454-14.517-1.498-14.591a1.083 1.083 0 01.377-1.483 1.08 1.08 0 011.484.372c.202.339 4.914 8.375 1.647 16.51a1.08 1.08 0 01-1.005.679z" fill="gray"/></g></g><g><path d="M219.072 395.747c-.523 0-.986-.279-1.242-.745-.969-1.767-10.563-9.968-16.381-14.725a1.082 1.082 0 01-.231-1.416c3.628-5.749 22.054-34.424 28.564-34.424.585 0 1.121.188 1.55.544 4.073 3.388 13.231 14.631 16.241 18.374 4.116-6.623 12.285-19.03 15.662-19.03.074 0 .307.023.38.038 3.007.633 12.047 9.852 15.315 13.271l11.741-13.768-7.905-9.003a1.085 1.085 0 01.485-1.748c.815-.258 20.029-6.337 27.105-6.337.744 0 3.008 0 3.432 1.617.936 3.557-.617 28.414-.797 31.237a1.083 1.083 0 01-1.813.728l-7.626-6.997c-8.742 25.968-13.54 28.821-15.215 28.823h-.001c-.478 0-.925-.146-1.326-.432-3.98-2.835-16.928-13.059-20.637-15.994-2.478 4.23-10.475 17.805-12.038 19.568-.303.341-.746.529-1.246.529-3.018 0-12.93-9.329-17.191-13.48-6.428 10.939-14.289 23.37-16.826 23.37zm-15.509-16.538c3.078 2.533 13.234 10.973 15.736 14.13 2.302-1.949 9.419-12.96 15.43-23.254a1.08 1.08 0 011.695-.224c6.482 6.398 14.431 13.309 16.472 13.802 1.608-2.11 8.092-12.977 12.235-20.071a1.084 1.084 0 011.608-.302c.169.133 17.008 13.48 21.526 16.701h.007c2.538 0 9.134-14.94 13.751-28.895.115-.349.4-.616.755-.709.353-.089.734.002 1.005.252l7.183 6.591c.645-10.675 1.294-25.384.759-28.125-.149-.059-.53-.159-1.372-.159-5.607 0-20.046 4.27-24.861 5.743l7.422 8.453c.355.404.36 1.009.011 1.418l-13.13 15.397c-.2.235-.49.372-.797.381a1.073 1.073 0 01-.816-.341c-5.06-5.364-13.065-13.102-15.015-13.512-1.796.239-8.98 10.211-14.558 19.316-.184.3-.505.493-.858.514a1.065 1.065 0 01-.914-.408c-.122-.152-12.255-15.402-16.892-19.257h-.014c-3.995 0-17.596 18.764-26.368 32.559z" fill="gray"/></g><g><path d="M79.767 148.496a1.083 1.083 0 01-1.075-.961c-.007-.061-.176-1.557-.176-3.969l.002-.472a1.092 1.092 0 011.083-1.088h.006a1.075 1.075 0 011.077 1.081l-.002.478c0 2.277.16 3.709.161 3.724a1.084 1.084 0 01-1.076 1.207zm.057-8.667c-.033 0-.067-.002-.101-.004a1.084 1.084 0 01-.98-1.179c.138-1.487.337-2.966.596-4.393.107-.59.669-.973 1.259-.874.589.108.98.671.874 1.259a48.397 48.397 0 00-.57 4.206 1.084 1.084 0 01-1.078.985zm1.556-8.523a1.083 1.083 0 01-1.043-1.377c.414-1.462.898-2.88 1.442-4.213a1.08 1.08 0 011.411-.595c.554.224.821.857.595 1.411a38.561 38.561 0 00-1.364 3.984c-.134.479-.569.79-1.041.79zm53.757-1.402c-.118 0-.239-.019-.357-.061a6.813 6.813 0 01-.553-.214c-1.226-.527-2.341-1.471-3.312-2.806a1.083 1.083 0 111.752-1.274c.738 1.016 1.552 1.718 2.417 2.088.14.061.276.114.409.161a1.084 1.084 0 01-.356 2.106zm4.011-.709a1.084 1.084 0 01-.795-1.82c.587-.633.91-1.695.91-2.99l-.004-.286a1.085 1.085 0 011.041-1.126c.558.002 1.101.442 1.124 1.041l.006.381c0 1.858-.514 3.4-1.485 4.452a1.086 1.086 0 01-.797.348zm-9.302-5.781c-.448 0-.866-.279-1.022-.726a25.618 25.618 0 01-1.09-4.384 1.083 1.083 0 01.897-1.242c.585-.11 1.147.305 1.242.895.233 1.445.567 2.795.994 4.016a1.082 1.082 0 01-1.021 1.441zm-45.188-.112a1.083 1.083 0 01-.943-1.615 31.355 31.355 0 012.47-3.741 1.083 1.083 0 011.716 1.324 29.01 29.01 0 00-2.299 3.479 1.08 1.08 0 01-.944.553zm54.703-2.361c-.423 0-.825-.25-1-.664a15.518 15.518 0 00-2.045-3.483 1.086 1.086 0 01.197-1.521 1.09 1.09 0 011.519.197 17.86 17.86 0 012.329 3.969 1.084 1.084 0 01-1 1.502zm-49.421-4.465c-.287 0-.572-.112-.786-.339a1.081 1.081 0 01.04-1.53 28.87 28.87 0 013.492-2.829 1.084 1.084 0 011.228 1.786 26.576 26.576 0 00-3.228 2.613c-.21.2-.479.299-.746.299zm38.474-1.576c-.587 0-1.07-.47-1.083-1.058l-.01-.861c0-1.14.054-2.306.162-3.462a1.08 1.08 0 01-1.219.362 30.211 30.211 0 00-4.03-1.096 1.084 1.084 0 01-.848-1.276 1.076 1.076 0 011.276-.848 32.36 32.36 0 014.32 1.176c.439.154.716.563.725 1.001a1.083 1.083 0 011.945.753c-.017.182-.034.364-.049.548l.026-.051a1.082 1.082 0 011.471-.43 23.947 23.947 0 013.754 2.537c.461.381.525 1.064.144 1.523a1.08 1.08 0 01-1.526.144 21.74 21.74 0 00-3.413-2.304 1.077 1.077 0 01-.511-.62c-.04.686-.06 1.367-.06 2.042l.01.81a1.084 1.084 0 01-1.059 1.109l-.025.001zm-31.374-3.312a1.081 1.081 0 01-.472-2.058 33.267 33.267 0 014.149-1.663 1.083 1.083 0 11.671 2.061 30.77 30.77 0 00-3.876 1.553 1.1 1.1 0 01-.472.107zm8.196-2.689a1.083 1.083 0 01-.209-2.146 43.592 43.592 0 014.387-.637c.578-.042 1.124.383 1.18.978a1.084 1.084 0 01-.976 1.181 41.685 41.685 0 00-4.169.603 1.053 1.053 0 01-.213.021zm12.927-.696c-.031 0-.06-.002-.091-.004a44.537 44.537 0 00-3.637-.148l-.587.002h-.012a1.083 1.083 0 01-.011-2.167l.61-.002c1.296 0 2.58.053 3.817.157a1.083 1.083 0 01-.089 2.162zm11.079-1.913a1.081 1.081 0 01-1.06-1.311c.315-1.46.717-2.905 1.197-4.297a1.084 1.084 0 012.048.706 35.68 35.68 0 00-1.127 4.048 1.085 1.085 0 01-1.058.854zm62.75-1.284a1.083 1.083 0 01-.563-2.01c.496-.3.781-1.107.781-2.213a7.69 7.69 0 00-.033-.681 1.084 1.084 0 01.982-1.176c.59-.032 1.122.387 1.176.982.028.303.041.595.041.876 0 1.909-.647 3.354-1.824 4.067a1.096 1.096 0 01-.56.155zm-4.034-.686c-.237 0-.475-.078-.675-.237-1.097-.876-2.04-2.19-2.801-3.904a1.084 1.084 0 011.98-.88c.61 1.375 1.362 2.444 2.173 3.091a1.08 1.08 0 01.17 1.521c-.214.27-.529.409-.847.409zm-55.899-6.204a1.083 1.083 0 01-.971-1.559c.66-1.35 1.41-2.653 2.227-3.878a1.082 1.082 0 111.802 1.202 31.717 31.717 0 00-2.084 3.629 1.082 1.082 0 01-.974.606zm60.086-1.201c-.424 0-.827-.252-1.001-.667a21.905 21.905 0 00-1.951-3.635 1.085 1.085 0 01.309-1.502 1.086 1.086 0 011.5.309 24.246 24.246 0 012.143 3.995 1.086 1.086 0 01-1 1.5zm-7.946-.227c-.506 0-.957-.355-1.061-.87a30.594 30.594 0 01-.543-4.46 1.082 1.082 0 011.028-1.134c.616-.102 1.107.43 1.136 1.028a28.04 28.04 0 00.503 4.139 1.085 1.085 0 01-1.063 1.297zm65.108-2.378c-.987 0-2.012-.038-3.072-.116a1.085 1.085 0 01-1.001-1.162c.043-.597.576-1.06 1.16-1.001 1.034.076 2.046.144 2.992.112.415 0 .82-.006 1.22-.021.585.011 1.099.444 1.121 1.045.022.597-.445 1.1-1.043 1.121-.451.018-.89.037-1.377.022zm5.64-.432a1.084 1.084 0 01-.174-2.152 27.744 27.744 0 004.045-.971 1.084 1.084 0 01.669 2.061 29.384 29.384 0 01-4.364 1.047.966.966 0 01-.176.015zm-12.932-.194a.966.966 0 01-.176-.015l-.48-.08c-1.582-.269-2.885-.734-3.978-1.418a1.084 1.084 0 011.149-1.837c.85.531 1.896.897 3.198 1.119l.46.078a1.083 1.083 0 01-.173 2.153zm21.122-2.497a1.083 1.083 0 01-.509-2.04 22.356 22.356 0 003.451-2.258 1.082 1.082 0 111.35 1.692 24.47 24.47 0 01-3.785 2.478 1.057 1.057 0 01-.507.128zm-126.274-.25a1.082 1.082 0 01-.809-1.803 30.981 30.981 0 013.212-3.125 1.084 1.084 0 011.397 1.655 29.665 29.665 0 00-2.99 2.909 1.081 1.081 0 01-.81.364zm50.566-1.246c-.293 0-.585-.118-.799-.351a27.015 27.015 0 00-1.918-1.894 1.098 1.098 0 01-1.058.611 1.086 1.086 0 01-.999-1.164c.112-1.485.315-2.973.605-4.42a1.075 1.075 0 011.275-.851c.586.116.967.688.85 1.274-.131.656-.243 1.32-.336 1.989a29.69 29.69 0 013.179 2.99 1.084 1.084 0 01-.799 1.816zm47.835-.614c-.424 0-.827-.252-1-.667-.622-1.494-.894-3.18-1.061-4.484a1.084 1.084 0 012.149-.275c.149 1.168.389 2.67.911 3.925a1.085 1.085 0 01-.999 1.501zm34.613-3.252a1.082 1.082 0 01-.817-1.795 24.297 24.297 0 002.44-3.352 1.084 1.084 0 011.854 1.121 26.351 26.351 0 01-2.66 3.652 1.077 1.077 0 01-.817.374zm-126.412-.455a1.084 1.084 0 01-.575-2.002 33.128 33.128 0 013.945-2.11 1.085 1.085 0 01.89 1.977 31.21 31.21 0 00-3.687 1.97 1.078 1.078 0 01-.573.165zm37.238-1.094c-.186 0-.375-.049-.547-.148a29.506 29.506 0 00-3.743-1.849 1.084 1.084 0 01-.594-1.413 1.086 1.086 0 011.412-.592 31.66 31.66 0 014.02 1.985 1.084 1.084 0 01-.548 2.017zm-29.376-2.473a1.084 1.084 0 01-.321-2.118 41.413 41.413 0 014.312-1.079 1.092 1.092 0 011.271.857 1.085 1.085 0 01-.856 1.272 38.72 38.72 0 00-4.086 1.02 1.075 1.075 0 01-.32.048zm21.385-.798c-.089 0-.18-.011-.27-.034a32.835 32.835 0 00-4.118-.774 1.083 1.083 0 11.266-2.15c1.493.184 2.97.463 4.388.825a1.083 1.083 0 01-.266 2.133zm61.091-.444c-.54 0-1.006-.402-1.074-.95-.207-1.674-.445-2.937-.772-4.096a1.085 1.085 0 012.086-.588c.357 1.27.615 2.632.836 4.418a1.082 1.082 0 01-1.076 1.216zm-73.991-.432a1.084 1.084 0 01-.104-2.163 43.694 43.694 0 014.171-.203h.259a1.083 1.083 0 110 2.166h-.261a41.581 41.581 0 00-3.96.195 1.23 1.23 0 01-.105.005zm25.627-.548a1.083 1.083 0 01-1.026-1.43 31.151 31.151 0 011.738-4.139 1.087 1.087 0 011.458-.472c.532.273.744.925.472 1.458a28.71 28.71 0 00-1.615 3.847 1.084 1.084 0 01-1.027.736zm88.924-1.136a1.083 1.083 0 01-1.005-1.487c.773-1.925 1.041-3.265 1.07-3.411.112-.59.687-.963 1.267-.861.587.112.972.679.86 1.267-.052.273-.354 1.741-1.187 3.813-.17.423-.577.679-1.005.679zm-43.057-6.1c-.365 0-.722-.184-.926-.518a12.68 12.68 0 00-2.57-3.019 1.086 1.086 0 01-.108-1.53 1.087 1.087 0 011.528-.108 15.089 15.089 0 012.999 3.527 1.084 1.084 0 01-.923 1.648zm-41.915-.434a1.085 1.085 0 01-.868-1.731 23.808 23.808 0 013.034-3.366 1.084 1.084 0 011.462 1.6 21.712 21.712 0 00-2.757 3.062c-.213.285-.54.435-.871.435zm35.547-5.226c-.167 0-.337-.038-.496-.121a25.366 25.366 0 00-3.826-1.568 1.084 1.084 0 01-.697-1.365c.184-.567.8-.878 1.364-.696a27.646 27.646 0 014.154 1.703 1.084 1.084 0 01-.499 2.047zm-29.179-.563c-.369 0-.73-.188-.932-.531a1.081 1.081 0 01.378-1.483 22.28 22.28 0 014.122-1.906 1.083 1.083 0 11.706 2.048 20.175 20.175 0 00-3.722 1.72 1.077 1.077 0 01-.552.152zm21.015-2.165a.974.974 0 01-.22-.023 55.326 55.326 0 00-4.037-.671c-.592-.078-1.084-.631-1.006-1.225.076-.592.546-1.03 1.14-.944l.146.019c1.459.19 2.87.425 4.195.7a1.082 1.082 0 01-.218 2.144zm-12.897-.679a1.083 1.083 0 01-.163-2.154 29.019 29.019 0 014.387-.324c.68.021 1.15.474 1.15 1.083-.002.611-.506 1.064-1.102 1.083-1.443 0-2.809.099-4.107.298a.935.935 0 01-.165.014z" fill="gray"/></g><g><path d="M270.468 457.991h-.046a38.987 38.987 0 01-4.433-.436 1.083 1.083 0 01.339-2.141c1.354.216 2.762.353 4.183.41a1.084 1.084 0 01-.043 2.167zm4.328-.045a1.084 1.084 0 01-.066-2.165 47.32 47.32 0 004.207-.459 1.088 1.088 0 011.237.906 1.084 1.084 0 01-.905 1.236 48.42 48.42 0 01-4.404.48c-.023.002-.046.002-.069.002zm8.557-1.307a1.083 1.083 0 01-.251-2.138c1.264-.3 2.555-.654 3.871-1.064l.222-.07a1.083 1.083 0 11.669 2.061l-.26.083a63.092 63.092 0 01-3.998 1.098c-.085.021-.169.03-.253.03zm-21.418-.013c-.1 0-.203-.015-.305-.044a32.48 32.48 0 01-4.2-1.547 1.083 1.083 0 01.888-1.976 30.608 30.608 0 003.921 1.445 1.082 1.082 0 01-.304 2.122zm29.673-2.598a1.083 1.083 0 01-.403-2.088 52.724 52.724 0 003.872-1.733 1.082 1.082 0 11.967 1.939 54.806 54.806 0 01-4.033 1.805 1.117 1.117 0 01-.403.077zm-37.538-.965c-.201 0-.405-.055-.587-.174a27.988 27.988 0 01-3.574-2.738 1.085 1.085 0 011.454-1.608 25.532 25.532 0 003.297 2.526 1.083 1.083 0 01-.59 1.994zm45.275-2.91a1.085 1.085 0 01-.572-2.004 42.07 42.07 0 003.473-2.399 1.083 1.083 0 011.32 1.718 43.86 43.86 0 01-3.653 2.522 1.07 1.07 0 01-.568.163zm-51.659-2.886c-.323 0-.641-.142-.855-.417a24.083 24.083 0 01-2.45-3.813 1.083 1.083 0 011.928-.99 21.905 21.905 0 002.23 3.47 1.082 1.082 0 01-.853 1.75zm58.501-2.397a1.084 1.084 0 01-.754-1.862 35.24 35.24 0 002.844-3.093 1.084 1.084 0 011.683 1.366 37.487 37.487 0 01-3.019 3.284 1.086 1.086 0 01-.754.305zm-62.423-5.269c-.476 0-.912-.315-1.044-.798a18.749 18.749 0 01-.673-4.541 1.083 1.083 0 011.061-1.104c.628.027 1.093.463 1.106 1.062.026 1.31.227 2.66.597 4.012a1.084 1.084 0 01-1.047 1.369zm67.863-1.449a1.084 1.084 0 01-.921-1.653 30.075 30.075 0 001.942-3.699 1.084 1.084 0 011.984.872 32.746 32.746 0 01-2.082 3.965 1.08 1.08 0 01-.923.515zm-67.97-7.112a1.085 1.085 0 01-1.044-1.377 13.787 13.787 0 012.004-4.228 1.084 1.084 0 011.769 1.253 11.563 11.563 0 00-1.686 3.563c-.136.478-.57.789-1.043.789zm71.428-.801a1.083 1.083 0 01-1.047-1.367c.175-.645.326-1.297.451-1.944a27.196 27.196 0 01-2.893-1.394 1.083 1.083 0 111.056-1.892 25.07 25.07 0 002.167 1.073c.097-.556.59-.958 1.18-.889.595.061 1.026.595.964 1.189-.022.216-.048.432-.075.647a1.086 1.086 0 01-.263 1.638 28.974 28.974 0 01-.494 2.139c-.132.482-.57.8-1.046.8zm9.476-1.306h-.006a27.025 27.025 0 01-4.488-.398 1.083 1.083 0 01-.882-1.253c.104-.588.664-1.001 1.253-.88 1.35.233 2.739.355 4.13.364a1.084 1.084 0 01-.007 2.167zm4.317-.315a1.084 1.084 0 01-.161-2.154 29.741 29.741 0 004.072-.923 1.084 1.084 0 01.624 2.074c-1.461.44-2.933.772-4.373.99a.983.983 0 01-.162.013zm8.286-2.461a1.083 1.083 0 01-.437-2.075 40.644 40.644 0 003.763-1.902 1.082 1.082 0 111.075 1.879 42.462 42.462 0 01-3.966 2.008c-.142.06-.29.09-.435.09zm-28.637-2.897c-.237 0-.475-.078-.675-.237a26.137 26.137 0 01-3.278-3.108 1.082 1.082 0 01.093-1.528c.449-.4 1.132-.36 1.53.093a24.156 24.156 0 003.007 2.85 1.08 1.08 0 01.17 1.521c-.213.27-.529.409-.847.409zm36.178-1.35a1.084 1.084 0 01-.606-1.982 55.914 55.914 0 003.432-2.503 1.084 1.084 0 011.343 1.701 59.238 59.238 0 01-3.565 2.6 1.076 1.076 0 01-.604.184zm-28.749-.251a1.083 1.083 0 01-1.079-1.001 19.327 19.327 0 00-.725-4.033 1.084 1.084 0 012.078-.614c.418 1.409.69 2.918.807 4.481a1.086 1.086 0 01-.999 1.164c-.027.003-.055.003-.082.003zm-13.104-4.886c-.377 0-.744-.197-.943-.548-.864-1.521-1.438-3.041-1.66-4.393a1.084 1.084 0 01.895-1.244 1.076 1.076 0 011.244.893c.18 1.102.665 2.374 1.404 3.673a1.083 1.083 0 01-.94 1.619zm48.633-.239a1.084 1.084 0 01-.74-1.875 47.23 47.23 0 002.956-3.028 1.082 1.082 0 111.619 1.439 49.25 49.25 0 01-3.093 3.17 1.08 1.08 0 01-.742.294zm-38.041-3.083a1.08 1.08 0 01-.92-.51c-.735-1.181-1.613-2.165-2.61-2.926a1.083 1.083 0 011.316-1.722c1.204.923 2.259 2.099 3.133 3.502a1.083 1.083 0 01-.919 1.656zm43.781-3.388a1.085 1.085 0 01-.876-1.72 39.747 39.747 0 002.293-3.538 1.083 1.083 0 111.879 1.079 42.165 42.165 0 01-2.417 3.732 1.08 1.08 0 01-.879.447zm-54.735-1.25a1.083 1.083 0 01-.624-1.97c1.091-.766 2.564-1.011 4.524-.677.176.032.348.066.521.102.585.127.957.702.832 1.289-.126.584-.702.942-1.286.832l-.433-.085c-1.297-.226-2.305-.112-2.913.313a1.082 1.082 0 01-.621.196zm59.031-6.257a1.083 1.083 0 01-.995-1.511 34.16 34.16 0 001.42-3.95c.165-.576.767-.91 1.341-.738.574.167.906.768.738 1.344a36.038 36.038 0 01-1.509 4.2c-.176.41-.576.655-.995.655zm2.395-8.303a1.083 1.083 0 01-1.073-1.244c.211-1.397.318-2.795.321-4.158.002-.597.428-1.03 1.085-1.081.598 0 1.082.487 1.081 1.085a30.438 30.438 0 01-.344 4.475 1.084 1.084 0 01-1.07.923zm4.494-6.341c-.017 0-.034 0-.051-.002a33.996 33.996 0 01-4.448-.495 1.085 1.085 0 01-.493-1.904 1.083 1.083 0 01-.585-.789 20.25 20.25 0 00-1.073-3.965 1.083 1.083 0 112.021-.783 22.436 22.436 0 011.189 4.388c.063.377-.076.741-.337.98 1.235.209 2.52.345 3.826.406a1.083 1.083 0 01-.049 2.164zm4.328-.059a1.082 1.082 0 01-1.079-1.003 1.086 1.086 0 011.001-1.162 40.76 40.76 0 004.186-.529c.604-.091 1.152.288 1.257.876a1.083 1.083 0 01-.876 1.257 43.72 43.72 0 01-4.408.559c-.027.002-.054.002-.081.002zm-12.823-1.498c-.115 0-.233-.019-.348-.057a26.043 26.043 0 01-4.138-1.809 1.084 1.084 0 011.044-1.9c1.166.641 2.442 1.2 3.791 1.657a1.085 1.085 0 01-.349 2.109zm21.341-.021a1.084 1.084 0 01-.299-2.124 28.151 28.151 0 003.911-1.435 1.089 1.089 0 011.436.535c.249.544.01 1.187-.534 1.437a30.452 30.452 0 01-4.212 1.545 1.094 1.094 0 01-.302.042zm7.806-3.648a1.083 1.083 0 01-.638-1.959 16.135 16.135 0 002.963-2.759 1.084 1.084 0 011.67 1.384 18.428 18.428 0 01-3.359 3.127 1.08 1.08 0 01-.636.207zm-36.668-.525c-.254 0-.509-.089-.715-.269-1.3-1.143-2.334-2.395-2.99-3.625a1.085 1.085 0 011.912-1.02c.533 1.001 1.401 2.044 2.507 3.015a1.084 1.084 0 01-.714 1.899zm8.312-4.509c-.329 0-.655-.15-.868-.434-.841-1.119-1.801-2.006-2.854-2.632a1.084 1.084 0 011.108-1.862c1.297.772 2.467 1.847 3.479 3.195a1.084 1.084 0 01-.865 1.733zm33.792-1.578a1.084 1.084 0 01-.989-1.523c.534-1.2.926-2.507 1.164-3.883.102-.588.668-.98 1.252-.884.59.104.985.662.883 1.253a18.616 18.616 0 01-1.318 4.395c-.18.403-.576.642-.992.642zm-45.044-1.327a1.083 1.083 0 01-.859-1.743c.589-.766 1.806-1.68 4.26-1.68.203-.015.416.006.636.019a1.081 1.081 0 011.022 1.14c-.032.599-.561 1.083-1.14 1.022-.177-.008-.327.034-.515-.015-1.228 0-2.131.296-2.542.834a1.088 1.088 0 01-.862.423zm46.58-7.131a1.084 1.084 0 01-1.082-1.056 27.246 27.246 0 00-.438-4.141 1.085 1.085 0 01.874-1.259 1.086 1.086 0 011.259.874c.276 1.532.435 3.036.472 4.471a1.084 1.084 0 01-1.056 1.111h-.029zm-1.494-8.51c-.461 0-.889-.296-1.034-.76-.735-2.347-1.485-3.878-1.493-3.893a1.086 1.086 0 01.492-1.452 1.086 1.086 0 011.45.491c.033.068.828 1.686 1.618 4.206a1.084 1.084 0 01-1.033 1.408z" fill="gray"/></g><g><path d="M59.574 450.663a1.087 1.087 0 01-1.088-1.083 1.08 1.08 0 011.08-1.083c1.406 0 2.807-.091 4.171-.269.598 0 1.158.48 1.158 1.079s-.409 1.079-1.008 1.079h-.011c-1.315.18-2.81.277-4.302.277zm-4.325-.266a.984.984 0 01-.132-.008 40.264 40.264 0 01-4.38-.787 1.082 1.082 0 01-.804-1.303c.136-.582.723-.956 1.303-.804 1.387.328 2.781.58 4.143.745a1.083 1.083 0 01-.13 2.157zm12.897-.787a1.083 1.083 0 01-.25-2.138 36.937 36.937 0 004.031-1.202 1.09 1.09 0 011.387.652 1.085 1.085 0 01-.651 1.388 39.652 39.652 0 01-4.266 1.27c-.084.021-.167.03-.251.03zm-21.315-1.2c-.118 0-.239-.019-.358-.061a46.158 46.158 0 01-4.111-1.663 1.083 1.083 0 01-.53-1.437c.249-.546.89-.785 1.438-.531 1.292.597 2.61 1.13 3.919 1.587a1.084 1.084 0 01-.358 2.105zm29.442-1.748a1.083 1.083 0 01-.489-2.051 33.896 33.896 0 003.618-2.118 1.081 1.081 0 011.504.294c.333.497.202 1.17-.294 1.504a35.663 35.663 0 01-3.853 2.253c-.156.08-.322.118-.486.118zm-37.306-1.868c-.183 0-.369-.047-.54-.144a52.112 52.112 0 01-3.735-2.372 1.082 1.082 0 01-.271-1.507 1.081 1.081 0 011.509-.271 49.897 49.897 0 003.578 2.27c.518.298.697.961.398 1.479-.2.35-.565.545-.939.545zm44.469-2.962a1.082 1.082 0 01-.714-1.898 32.208 32.208 0 002.963-2.96 1.084 1.084 0 011.627 1.431 34.406 34.406 0 01-3.162 3.159 1.087 1.087 0 01-.714.268zm-51.572-1.989c-.244 0-.49-.083-.692-.252a52.707 52.707 0 01-3.276-2.969 1.084 1.084 0 011.519-1.545 51.51 51.51 0 003.143 2.85 1.083 1.083 0 01-.694 1.916zm72.204-2.523l-.651-.008a1.084 1.084 0 01-1.049-1.117 1.068 1.068 0 011.117-1.049l.583.008c1.153 0 2.342-.093 3.535-.279a1.084 1.084 0 11.332 2.142 25.31 25.31 0 01-3.867.303zm-4.902-.565a.992.992 0 01-.252-.03 20.79 20.79 0 01-4.294-1.536 1.081 1.081 0 01-.498-1.447c.262-.537.91-.76 1.448-.499a18.612 18.612 0 003.846 1.375 1.083 1.083 0 01-.25 2.137zm12.815-.727a1.085 1.085 0 01-.328-2.116 33.515 33.515 0 003.906-1.526 1.085 1.085 0 01.91 1.968 36.225 36.225 0 01-4.16 1.623c-.109.034-.22.051-.328.051zm-22.839-.686a1.085 1.085 0 01-.898-1.688c.441-.656.858-1.327 1.247-2.01-.7-.66-1.354-1.369-1.955-2.116a1.082 1.082 0 01.166-1.523 1.079 1.079 0 011.522.165c.43.535.89 1.047 1.376 1.532a1.085 1.085 0 011.69 1.293l-.075.15a1.085 1.085 0 01-.986 1.822c-.373.643-.77 1.278-1.187 1.898-.209.31-.552.477-.9.477zm-63.436-1.587c-.307 0-.611-.129-.825-.381a48.398 48.398 0 01-2.714-3.504 1.085 1.085 0 011.771-1.249 46.487 46.487 0 002.593 3.347 1.084 1.084 0 01-.825 1.787zm94.14-1.322a1.083 1.083 0 01-.551-2.016 42.274 42.274 0 003.526-2.321 1.085 1.085 0 011.282 1.748 44.052 44.052 0 01-3.708 2.44c-.172.1-.362.149-.549.149zm-26.877-4.837a1.083 1.083 0 01-1.03-1.422c.453-1.375.779-2.732.968-4.031.086-.592.633-.986 1.228-.916.591.087 1.002.637.915 1.229a26.086 26.086 0 01-1.053 4.395 1.083 1.083 0 01-1.028.745zm33.834-.294a1.083 1.083 0 01-.737-1.877 33.38 33.38 0 002.89-3.036 1.083 1.083 0 111.663 1.388 35.237 35.237 0 01-3.081 3.235c-.207.194-.472.29-.735.29zm-106.065-.633a1.08 1.08 0 01-.944-.55 41.655 41.655 0 01-1.984-3.98 1.084 1.084 0 011.989-.859 39.784 39.784 0 001.88 3.773 1.084 1.084 0 01-.941 1.616zm65.34-.398c-.406 0-.796-.229-.981-.62-.706-1.494-1.166-2.988-1.367-4.439a1.082 1.082 0 112.146-.296c.169 1.215.577 2.533 1.181 3.809a1.085 1.085 0 01-.979 1.546zm46.247-5.611a1.084 1.084 0 01-.919-1.655 27.341 27.341 0 001.921-3.694 1.085 1.085 0 011.993.851 29.535 29.535 0 01-2.074 3.986 1.08 1.08 0 01-.921.512zm-38.242-1.6c-.538 0-1.005-.4-1.074-.948-.186-1.481-.661-2.611-1.338-3.187a1.083 1.083 0 111.403-1.651c1.107.939 1.827 2.518 2.085 4.566a1.082 1.082 0 01-1.076 1.22zm-76.763-.336c-.468 0-.898-.305-1.038-.774a34.383 34.383 0 01-1.001-4.359 1.084 1.084 0 01.898-1.242 1.093 1.093 0 011.241.899c.217 1.348.532 2.723.937 4.084a1.083 1.083 0 01-1.037 1.392zm67.906-.838a1.081 1.081 0 01-.996-1.507c.473-1.113 1.2-2.004 2.159-2.645.507-.336.991-.609 1.452-.821a1.083 1.083 0 01.906 1.968 8.43 8.43 0 00-1.154.656c-.603.402-1.063.971-1.369 1.688a1.086 1.086 0 01-.998.661zm50.473-5.173a1.084 1.084 0 01-1.052-1.346c.335-1.344.558-2.721.662-4.092a1.07 1.07 0 011.163-.999c.597.047 1.043.567.998 1.164a26.993 26.993 0 01-.719 4.452 1.085 1.085 0 01-1.052.821zm-119.73-2.52a1.083 1.083 0 01-1.083-1.069l-.003-.451c0-1.352.094-2.708.279-4.033a1.083 1.083 0 112.146.3 27.081 27.081 0 00-.258 3.732l.003.421c.008.597-.47 1.09-1.067 1.098-.006.002-.012.002-.017.002zm120.377-6.082a1.084 1.084 0 01-1.077-.978 21.83 21.83 0 00-.78-4.048 1.085 1.085 0 01.732-1.346 1.088 1.088 0 011.346.732c.205.694.379 1.407.519 2.131 1.313.275 2.668.451 4.032.523.598.03 1.057.54 1.026 1.138-.033.597-.545 1.071-1.138 1.024a28.647 28.647 0 01-3.585-.413l.004.047a1.085 1.085 0 01-1.079 1.19zm9.042-.926a1.084 1.084 0 01-.106-2.16 29.556 29.556 0 004.114-.713 1.083 1.083 0 11.519 2.103c-1.468.362-2.955.62-4.419.764a.977.977 0 01-.108.006zm-128.212-1.537a1.082 1.082 0 01-1.034-1.403c.437-1.42.996-2.825 1.66-4.177a1.087 1.087 0 011.449-.497c.537.264.759.914.495 1.449a26.715 26.715 0 00-1.535 3.864 1.082 1.082 0 01-1.035.764zm115.447-.154c-.131 0-.263-.023-.393-.074a26.037 26.037 0 01-4.055-1.991 1.084 1.084 0 011.124-1.853c1.16.702 2.41 1.318 3.717 1.826a1.083 1.083 0 01-.393 2.092zm21.161-.355a1.084 1.084 0 01-.395-2.093 20.329 20.329 0 003.657-1.862 1.083 1.083 0 111.181 1.815 22.51 22.51 0 01-4.047 2.065 1.086 1.086 0 01-.396.075zm-28.51-4.148a1.08 1.08 0 01-.74-.292c-1.306-1.219-2.304-2.505-2.889-3.72a1.082 1.082 0 111.951-.939c.471.973 1.307 2.038 2.417 3.077a1.083 1.083 0 01-.739 1.874zm35.673-.586a1.083 1.083 0 01-.793-1.82 16.045 16.045 0 002.352-3.292 1.083 1.083 0 111.906 1.028 18.17 18.17 0 01-2.671 3.737 1.077 1.077 0 01-.794.347zm-27.077-.531c-.381 0-.75-.201-.948-.556-.691-1.244-1.5-2.321-2.406-3.197a1.083 1.083 0 111.507-1.557c1.059 1.026 1.998 2.27 2.793 3.701a1.084 1.084 0 01-.946 1.609zm-112.905-1.978a1.084 1.084 0 01-.892-1.697 34.421 34.421 0 012.775-3.508 1.078 1.078 0 011.53-.078c.445.4.48 1.085.08 1.53a31.956 31.956 0 00-2.599 3.284 1.087 1.087 0 01-.894.469zm106.682-3.783c-.12 0-.241-.019-.361-.061a6.87 6.87 0 00-1.429-.341c-.33-.038-.64-.03-.927-.059-.467 0-.85.057-1.142.171a1.083 1.083 0 11-.787-2.019c.55-.214 1.21-.326 1.951-.32.355 0 .744.025 1.165.076a9.05 9.05 0 011.891.446 1.084 1.084 0 01-.361 2.107zm37.415-1.236a1.083 1.083 0 01-1.045-1.373c.353-1.27.604-2.641.745-4.075.058-.595.587-1.001 1.184-.973.596.059 1.03.588.972 1.185a26.134 26.134 0 01-.812 4.443c-.136.48-.57.793-1.044.793zm-138.328-1.416a1.084 1.084 0 01-.717-1.896 45.438 45.438 0 013.47-2.765 1.086 1.086 0 011.513.243c.349.487.24 1.164-.245 1.513a43.097 43.097 0 00-3.303 2.634 1.083 1.083 0 01-.718.271zm139.225-7.173c-.58 0-1.06-.459-1.081-1.043a41.83 41.83 0 00-.379-4.206c-.083-.592.33-1.14.923-1.223a1.09 1.09 0 011.223.923c.213 1.521.347 3.011.398 4.426.022.599-.445 1.1-1.043 1.124l-.041-.001zm-1.171-8.58c-.495 0-.942-.341-1.056-.844a62.916 62.916 0 00-1.084-4.122 1.087 1.087 0 01.727-1.35 1.09 1.09 0 011.349.728 65.253 65.253 0 011.122 4.266 1.083 1.083 0 01-1.058 1.322zm-2.479-8.307c-.44 0-.854-.271-1.016-.707-.89-2.404-1.606-3.91-1.613-3.925a1.083 1.083 0 011.955-.935c.031.066.763 1.604 1.69 4.107a1.082 1.082 0 01-1.016 1.46z" fill="gray"/></g><g><path d="M374.882 73.885c-3.837-9.592-298.003 108.194-298.003 108.194s50.556 43.333 65.888 57.42c0 0 13.766 113.289 21.44 107.708l98.135-52.077s56.093 22.921 60.107 17.904c7.672-9.592 65.861-242.986 52.433-239.149z" fill="#52afa6"/><path d="M370.913 72.867l-230.36 166.037a1.084 1.084 0 001.268 1.757L362.164 81.843c-14.882 15.341-46.875 48.457-78.352 81.923-80.879 85.991-84.997 96.194-84.638 98.666l-35.965 84.348a1.084 1.084 0 001.993.851l35.306-82.804c8.752 10.42 55.776 29.09 61.437 31.312a1.08 1.08 0 001.404-.614 1.084 1.084 0 00-.613-1.405c-16.139-6.333-58.632-24.424-61.391-31.927-.927-8.206 101.741-116.741 170.976-187.691.402-.389.464-.998.178-1.414-.329-.482-1.059-.613-1.586-.221zM133.399 171.155a1.082 1.082 0 01-.853-1.75c3.287-4.202 8.802-3.447 9.031-3.415a1.083 1.083 0 01-.31 2.145c-.044-.006-4.513-.592-7.013 2.603a1.078 1.078 0 01-.855.417zM143.575 177.418a1.083 1.083 0 01-.852-1.752c3.287-4.2 8.798-3.443 9.03-3.413a1.083 1.083 0 01-.31 2.145c-.048-.006-4.512-.595-7.014 2.605a1.081 1.081 0 01-.854.415zM114.984 194.934a1.085 1.085 0 01-1-1.501c2.113-5.082 7.507-6.185 7.736-6.229a1.09 1.09 0 011.267.855 1.084 1.084 0 01-.852 1.272c-.044.011-4.492.944-6.152 4.936a1.082 1.082 0 01-.999.667zM148.64 167.031a1.083 1.083 0 01-.852-1.752c3.287-4.2 8.8-3.443 9.03-3.413.591.087.999.635.914 1.227-.085.59-.631.99-1.224.918-.048-.006-4.513-.595-7.014 2.605a1.08 1.08 0 01-.854.415zM129.141 184.422a1.083 1.083 0 01-.852-1.752c3.287-4.2 8.799-3.445 9.03-3.413.591.087.999.635.914 1.227-.085.59-.632.986-1.224.918-.045-.006-4.513-.595-7.014 2.605a1.08 1.08 0 01-.854.415zM119.72 180.708a1.083 1.083 0 01-.932-1.633c2.757-4.67 8.272-4.797 8.506-4.801h.015a1.084 1.084 0 01.018 2.166c-.045 0-4.545.131-6.672 3.735a1.085 1.085 0 01-.935.533z" fill="gray"/><g><path d="M339.701 164.524a1.083 1.083 0 01-1.083-1.083c-.004-5.332 4.799-8.138 5.003-8.256a1.085 1.085 0 011.078 1.881c-.039.023-3.918 2.317-3.914 6.375 0 .597-.485 1.083-1.082 1.083h-.002zM351.573 163.176a1.083 1.083 0 01-1.083-1.083c-.004-5.334 4.799-8.138 5.003-8.256a1.084 1.084 0 011.077 1.881c-.039.023-3.917 2.315-3.913 6.375 0 .597-.485 1.083-1.082 1.083h-.002zM339.874 194.599c-.474 0-.91-.313-1.043-.793-1.472-5.305 2.094-9.498 2.246-9.674a1.077 1.077 0 011.525-.11c.453.389.504 1.073.115 1.526-.03.036-2.953 3.515-1.797 7.679a1.082 1.082 0 01-1.046 1.372zM349.152 151.875a1.083 1.083 0 01-1.083-1.083c-.004-5.332 4.799-8.138 5.003-8.256a1.087 1.087 0 011.475.402c.298.518.12 1.179-.397 1.479-.039.023-3.918 2.317-3.914 6.375 0 .597-.485 1.083-1.082 1.083h-.002zM344.534 177.592a1.083 1.083 0 01-1.083-1.081c-.006-5.334 4.798-8.14 5.002-8.258a1.085 1.085 0 011.078 1.881c-.039.023-3.918 2.317-3.913 6.373a1.082 1.082 0 01-1.082 1.085h-.002zM334.827 180.48a1.084 1.084 0 01-1.073-.942c-.71-5.374 3.554-8.876 3.736-9.024a1.084 1.084 0 011.361 1.686c-.035.028-3.498 2.905-2.95 7.054a1.086 1.086 0 01-1.074 1.226z" fill="gray"/></g><g><path d="M254.546 225.051a1.083 1.083 0 01-.819-1.792l56.334-65a1.084 1.084 0 011.638 1.418l-56.334 65a1.083 1.083 0 01-.819.374z" fill="#fbfcff"/></g><g><path d="M188.103 151.384a1.085 1.085 0 01-.431-2.078l73.667-31.779a1.083 1.083 0 01.859 1.989l-73.667 31.779a1.054 1.054 0 01-.428.089z" fill="#fbfcff"/></g><g><path d="M242.331 240.866a1.084 1.084 0 01-.858-1.743l6.976-9.067a1.084 1.084 0 011.718 1.32l-6.976 9.067a1.084 1.084 0 01-.86.423z" fill="#fbfcff"/></g></g></svg>
